<svg version="1.1" viewBox="0.0 0.0 512.0 512.0" fill="none" stroke="none" stroke-linecap="square" stroke-miterlimit="10" xmlns:xlink="http://www.w3.org/1999/xlink" xmlns="http://www.w3.org/2000/svg"><clipPath id="p.0"><path d="m0 0l512.0 0l0 512.0l-512.0 0l0 -512.0z" clip-rule="nonzero"/></clipPath><g clip-path="url(#p.0)"><path fill="#000000" fill-opacity="0.0" d="m0 0l512.0 0l0 512.0l-512.0 0z" fill-rule="evenodd"/><path fill="#6aa84f" d="m0 256.0l256.0 -256.0l256.0 256.0l-256.0 256.0z" fill-rule="evenodd"/><path stroke="#274e13" stroke-width="1.0" stroke-linejoin="round" stroke-linecap="butt" d="m0 256.0l256.0 -256.0l256.0 256.0l-256.0 256.0z" fill-rule="evenodd"/><path fill="#000000" fill-opacity="0.0" d="m48.335957 143.95801l415.33856 0l0 224.62991l-415.33856 0z" fill-rule="evenodd"/><path fill="#000000" d="m161.78908 280.80862q0 12.84375 -8.28125 19.6875q-8.265625 6.84375 -22.6875 6.84375l-45.078117 0q-3.421875 0 -5.0 -1.5625q-1.5625 -1.578125 -1.5625 -5.0l0 -16.6875q0 -3.421875 1.5625 -4.984375q1.578125 -1.578125 5.0 -1.578125l38.375 0q1.140625 0 1.703125 -0.84375q0.578125 -0.859375 0.578125 -1.859375q0 -1.578125 -0.578125 -2.421875q-0.5625 -0.859375 -1.84375 -1.0l-21.390625 -3.0q-10.703125 -1.578125 -17.0625 -7.0625q-6.34375 -5.4999847 -6.34375 -18.04686l0 -14.984375q0 -12.828125 8.203125 -19.671875q8.203125 -6.859375 22.765625 -6.859375l39.937492 0q3.421875 0 4.984375 1.578125q1.578125 1.5625 1.578125 4.984375l0 16.984375q0 3.421875 -1.578125 5.0q-1.5625 1.5625 -4.984375 1.5625l-33.234367 0q-1.140625 0 -1.796875 0.859375q-0.640625 0.84375 -0.640625 1.984375q0 1.28125 0.640625 2.140625q0.65625 0.859375 1.9375 1.0l21.249992 2.859375q10.703125 1.5625 17.125 7.0625q6.421875 5.484375 6.421875 18.031235l0 14.984375zm-30.96875 25.109375q13.703125 0 21.609375 -6.484375q7.921875 -6.5 7.921875 -18.625l0 -14.984375q0 -11.968735 -6.140625 -17.10936q-6.125 -5.140625 -16.109375 -6.5625l-21.249992 -2.859375q-1.859375 -0.140625 -2.859375 -1.421875q-1.0 -1.28125 -1.0 -3.140625q0 -1.859375 1.0 -3.0625q1.0 -1.21875 2.859375 -1.21875l33.234367 0q2.703125 0 3.921875 -1.203125q1.21875 -1.21875 1.21875 -3.921875l0 -16.984375q0 -2.703125 -1.21875 -3.921875q-1.21875 -1.21875 -3.921875 -1.21875l-39.937492 0q-13.84375 0 -21.6875 6.5q-7.84375 6.484375 -7.84375 18.609375l0 14.984375q0 11.984375 6.0625 17.124985q6.0625 5.125 16.046875 6.5625l21.390625 2.984375q1.859375 0.140625 2.78125 1.28125q0.9375 1.140625 0.9375 3.578125q0 1.703125 -0.9375 2.921875q-0.921875 1.203125 -2.78125 1.203125l-38.375 0q-2.703125 0 -3.921875 1.21875q-1.203125 1.21875 -1.203125 3.921875l0 16.6875q0 2.71875 1.203125 3.9375q1.21875 1.203125 3.921875 1.203125l45.078117 0zm11.5625 -89.874985l0 1.421875l-31.671867 0q-5.984375 0 -9.5625 3.28125q-3.5625 3.28125 -3.5625 8.28125l0 11.703125q0 4.984375 2.0 6.984375q2.0 2.0 5.28125 2.5625l30.093742 6.1406097q4.28125 0.859375 7.0625 3.71875q2.78125 2.84375 2.78125 10.265625l0 8.265625q0 6.28125 -4.28125 10.34375q-4.28125 4.0625 -11.546875 4.0625l-35.531242 0l0 -1.421875l35.531242 0q6.5625 0 10.484375 -3.640625q3.921875 -3.640625 3.921875 -9.34375l0 -8.265625q0 -6.703125 -2.359375 -9.203125q-2.34375 -2.5 -6.34375 -3.359375l-30.109367 -6.1249847q-3.703125 -0.71875 -6.0625 -2.921875q-2.34375 -2.21875 -2.34375 -8.0625l0 -11.703125q0 -5.703125 3.984375 -9.34375q4.0 -3.640625 10.5625 -3.640625l31.671867 0zm187.4532 60.76561q0 15.421875 -8.921875 22.984375q-8.921875 7.546875 -27.609375 7.546875l-48.0625 0q-3.421875 0 -5.0 -1.5625q-1.5625 -1.578125 -1.5625 -5.0l0 -92.437485q0 -3.421875 1.5625 -4.984375q1.578125 -1.578125 5.0 -1.578125l48.0625 0q18.6875 0 27.609375 7.5625q8.921875 7.5625 8.921875 22.96875l0 44.499985zm-36.53125 29.109375q17.84375 0 26.46875 -7.125q8.625 -7.140625 8.625 -21.984375l0 -44.499985q0 -14.84375 -8.625 -21.96875q-8.625 -7.140625 -26.46875 -7.140625l-48.0625 0q-2.71875 0 -3.9375 1.21875q-1.203125 1.21875 -1.203125 3.921875l0 92.437485q0 2.71875 1.203125 3.9375q1.21875 1.203125 3.9375 1.203125l48.0625 0zm-37.65625 -12.84375l0 -77.031235l34.53125 0q7.265625 0 11.75 1.578125q4.5 1.5625 6.921875 4.203125q2.4375 2.640625 3.28125 6.28125q0.859375 3.625 0.859375 7.765625l0 37.812485q0 4.125 -0.78125 7.703125q-0.78125 3.5625 -3.203125 6.140625q-2.421875 2.5625 -7.0 4.0625q-4.5625 1.484375 -11.828125 1.484375l-34.53125 0zm34.53125 -75.60936l-33.109375 0l0 74.187485l33.109375 0q6.84375 0 11.046875 -1.34375q4.21875 -1.359375 6.5 -3.71875q2.28125 -2.359375 3.0625 -5.703125q0.78125 -3.359375 0.78125 -7.203125l0 -37.812485q0 -3.84375 -0.859375 -7.265625q-0.84375 -3.4375 -3.140625 -5.859375q-2.28125 -2.421875 -6.484375 -3.84375q-4.203125 -1.4375 -10.90625 -1.4375zm-17.703125 12.984375l16.984375 0q3.421875 0 5.0625 1.640625q1.640625 1.640625 1.640625 5.203125l0 34.67186q0 3.5625 -1.640625 5.28125q-1.640625 1.703125 -5.0625 1.703125l-16.984375 0l0 -48.499985zm16.984375 1.4375l-15.546875 0l0 45.64061l15.546875 0q2.703125 0 3.984375 -1.34375q1.296875 -1.359375 1.296875 -4.21875l0 -34.67186q0 -2.703125 -1.296875 -4.046875q-1.28125 -1.359375 -3.984375 -1.359375zm62.20288 75.45311q-3.421875 0 -5.0 -1.5625q-1.5625 -1.578125 -1.5625 -5.0l0 -92.437485q0 -3.421875 1.5625 -4.984375q1.578125 -1.578125 5.0 -1.578125l66.1875 0q3.421875 0 4.984375 1.578125q1.578125 1.5625 1.578125 4.984375l0 16.6875q0 3.421875 -1.578125 5.0q-1.5625 1.5625 -4.984375 1.5625l-37.953125 0l0 8.140625l26.390625 0q3.4375 0 5.0 1.578125q1.5625 1.5625 1.5625 4.984375l0 15.26561q0 3.421875 -1.5625 5.0q-1.5625 1.5625 -5.0 1.5625l-26.390625 0l0 9.40625l37.953125 0q3.421875 0 4.984375 1.578125q1.578125 1.5625 1.578125 4.984375l0 16.6875q0 3.421875 -1.578125 5.0q-1.5625 1.5625 -4.984375 1.5625l-66.1875 0zm66.1875 -1.421875q2.703125 0 3.921875 -1.203125q1.21875 -1.21875 1.21875 -3.9375l0 -16.6875q0 -2.703125 -1.21875 -3.921875q-1.21875 -1.21875 -3.921875 -1.21875l-39.375 0l0 -12.265625l27.8125 0q2.71875 0 3.921875 -1.203125q1.21875 -1.21875 1.21875 -3.921875l0 -15.26561q0 -2.71875 -1.21875 -3.921875q-1.203125 -1.21875 -3.921875 -1.21875l-27.8125 0l0 -10.984375l39.375 0q2.703125 0 3.921875 -1.203125q1.21875 -1.21875 1.21875 -3.9375l0 -16.6875q0 -2.703125 -1.21875 -3.921875q-1.21875 -1.21875 -3.921875 -1.21875l-66.1875 0q-2.71875 0 -3.9375 1.21875q-1.203125 1.21875 -1.203125 3.921875l0 92.437485q0 2.71875 1.203125 3.9375q1.21875 1.203125 3.9375 1.203125l66.1875 0zm-7.703125 -14.265625l0 1.421875l-48.078125 0l0 -77.031235l48.078125 0l0 1.421875l-46.65625 0l0 35.8125l35.09375 0l0 1.421875l-35.09375 0l0 36.95311l46.65625 0z" fill-rule="nonzero"/><path fill="#000000" fill-opacity="0.0" d="m180.31206 205.06425l0 119.434555" fill-rule="evenodd"/><path stroke="#000000" stroke-width="1.0" stroke-linejoin="round" stroke-linecap="butt" d="m180.31206 205.06425l0 119.434555" fill-rule="evenodd"/><path fill="#000000" fill-opacity="0.0" d="m180.31206 324.4988l24.609222 0" fill-rule="evenodd"/><path stroke="#000000" stroke-width="1.0" stroke-linejoin="round" stroke-linecap="butt" d="m180.31206 324.4988l24.609222 0" fill-rule="evenodd"/><path fill="#000000" fill-opacity="0.0" d="m204.92128 205.06425l0 119.434555" fill-rule="evenodd"/><path stroke="#000000" stroke-width="1.0" stroke-linejoin="round" stroke-linecap="butt" d="m204.92128 205.06425l0 119.434555" fill-rule="evenodd"/><path fill="#000000" fill-opacity="0.0" d="m204.92128 205.06425l22.173508 0" fill-rule="evenodd"/><path stroke="#000000" stroke-width="1.0" stroke-linejoin="round" stroke-linecap="butt" d="m204.92128 205.06425l22.173508 0" fill-rule="evenodd"/><path fill="#000000" fill-opacity="0.0" d="m227.09479 204.80878l0 -17.05008" fill-rule="evenodd"/><path stroke="#000000" stroke-width="1.0" stroke-linejoin="round" stroke-linecap="butt" d="m227.09479 204.80878l0 -17.05008" fill-rule="evenodd"/><path fill="#000000" fill-opacity="0.0" d="m228.21466 187.50322l-46.11081 0" fill-rule="evenodd"/><path stroke="#000000" stroke-width="1.0" stroke-linejoin="round" stroke-linecap="butt" d="m228.21466 187.50322l-46.11081 0" fill-rule="evenodd"/><path fill="#000000" fill-opacity="0.0" d="m183.72768 187.63971c0 0.56695557 -4.4095154 -1.2178192 -8.8190155 1.1339111c-4.4095 2.3517303 -8.819 8.839981 -8.819 17.679977" fill-rule="evenodd"/><path stroke="#000000" stroke-width="1.0" stroke-linejoin="round" stroke-linecap="butt" d="m183.72768 187.63971c0 0.56695557 -4.4095154 -1.2178192 -8.8190155 1.1339111c-4.4095 2.3517303 -8.819 8.839981 -8.819 17.679977" fill-rule="evenodd"/><path fill="#000000" fill-opacity="0.0" d="m167.22353 205.06425l15.37027 0" fill-rule="evenodd"/><path stroke="#000000" stroke-width="1.0" stroke-linejoin="round" stroke-linecap="butt" d="m167.22353 205.06425l15.37027 0" fill-rule="evenodd"/><path fill="#000000" fill-opacity="0.0" d="m183.79767 308.96756l0 0c0 -4.8706055 3.9483948 -8.819 8.819 -8.819l0 0c2.3389435 0 4.5820923 0.9291382 6.235977 2.5830078c1.6538849 1.6539001 2.5830383 3.8970337 2.5830383 6.2359924l0 0c0 4.8706055 -3.94841 8.819 -8.8190155 8.819l0 0c-4.8706055 0 -8.819 -3.9483948 -8.819 -8.819z" fill-rule="evenodd"/><path stroke="#000000" stroke-width="1.0" stroke-linejoin="round" stroke-linecap="butt" d="m183.79767 308.96756l0 0c0 -4.8706055 3.9483948 -8.819 8.819 -8.819l0 0c2.3389435 0 4.5820923 0.9291382 6.235977 2.5830078c1.6538849 1.6539001 2.5830383 3.8970337 2.5830383 6.2359924l0 0c0 4.8706055 -3.94841 8.819 -8.8190155 8.819l0 0c-4.8706055 0 -8.819 -3.9483948 -8.819 -8.819z" fill-rule="evenodd"/><path fill="#000000" fill-opacity="0.0" d="m192.49069 204.81227l0.25196838 93.90144" fill-rule="evenodd"/><path stroke="#000000" stroke-width="1.0" stroke-linejoin="round" stroke-linecap="butt" d="m192.49069 204.81227l0.25196838 93.90144" fill-rule="evenodd"/></g></svg>