<svg version="1.1" viewBox="0.0 0.0 192.0 192.0" fill="none" stroke="none" stroke-linecap="square" stroke-miterlimit="10" xmlns:xlink="http://www.w3.org/1999/xlink" xmlns="http://www.w3.org/2000/svg"><clipPath id="p.0"><path d="m0 0l192.0 0l0 192.0l-192.0 0l0 -192.0z" clip-rule="nonzero"/></clipPath><g clip-path="url(#p.0)"><path fill="#000000" fill-opacity="0.0" d="m0 0l192.0 0l0 192.0l-192.0 0z" fill-rule="evenodd"/><path fill="#6aa84f" d="m0 96.0l96.0 -96.0l96.0 96.0l-96.0 96.0z" fill-rule="evenodd"/><path stroke="#274e13" stroke-width="1.0" stroke-linejoin="round" stroke-linecap="butt" d="m0 96.0l96.0 -96.0l96.0 96.0l-96.0 96.0z" fill-rule="evenodd"/><path fill="#000000" fill-opacity="0.0" d="m18.125984 53.984253l155.74802 0l0 84.031494l-155.74802 0z" fill-rule="evenodd"/><path fill="#000000" d="m60.188484 104.793625q0 4.796875 -3.09375 7.359375q-3.09375 2.5625 -8.484375 2.5625l-16.84375 0q-1.28125 0 -1.875 -0.578125q-0.578125 -0.59375 -0.578125 -1.875l0 -6.234375q0 -1.28125 0.578125 -1.859375q0.59375 -0.59375 1.875 -0.59375l14.34375 0q0.421875 0 0.640625 -0.3125q0.21875 -0.328125 0.21875 -0.703125q0 -0.59375 -0.21875 -0.90625q-0.21875 -0.328125 -0.6875 -0.375l-8.0 -1.125q-4.0 -0.578125 -6.375 -2.625q-2.375 -2.0625 -2.375 -6.75l0 -5.609375q0 -4.796875 3.0625 -7.34375q3.0625 -2.5625 8.515625 -2.5625l14.921875 0q1.28125 0 1.859375 0.59375q0.59375 0.578125 0.59375 1.859375l0 6.34375q0 1.28125 -0.59375 1.875q-0.578125 0.578125 -1.859375 0.578125l-12.421875 0q-0.421875 0 -0.671875 0.328125q-0.234375 0.3125 -0.234375 0.734375q0 0.484375 0.234375 0.8125q0.25 0.3125 0.71875 0.359375l7.953125 1.0625q4.0 0.59375 6.390625 2.65625q2.40625 2.046875 2.40625 6.734375l0 5.59375zm-11.578125 9.390625q5.125 0 8.078125 -2.421875q2.96875 -2.4375 2.96875 -6.96875l0 -5.59375q0 -4.484375 -2.296875 -6.390625q-2.296875 -1.921875 -6.03125 -2.46875l-7.9375 -1.0625q-0.6875 -0.046875 -1.0625 -0.53125q-0.375 -0.484375 -0.375 -1.171875q0 -0.6875 0.375 -1.140625q0.375 -0.453125 1.0625 -0.453125l12.421875 0q1.015625 0 1.46875 -0.453125q0.453125 -0.453125 0.453125 -1.46875l0 -6.34375q0 -1.015625 -0.453125 -1.46875q-0.453125 -0.453125 -1.46875 -0.453125l-14.921875 0q-5.1875 0 -8.125 2.421875q-2.921875 2.421875 -2.921875 6.953125l0 5.609375q0 4.46875 2.265625 6.390625q2.265625 1.921875 6.0 2.453125l8.0 1.125q0.6875 0.046875 1.03125 0.484375q0.359375 0.421875 0.359375 1.328125q0 0.640625 -0.359375 1.09375q-0.34375 0.453125 -1.03125 0.453125l-14.34375 0q-1.015625 0 -1.46875 0.453125q-0.453125 0.453125 -0.453125 1.46875l0 6.234375q0 1.015625 0.453125 1.46875q0.453125 0.453125 1.46875 0.453125l16.84375 0zm4.328125 -33.59375l0 0.53125l-11.84375 0q-2.234375 0 -3.578125 1.234375q-1.328125 1.21875 -1.328125 3.078125l0 4.375q0 1.875 0.75 2.625q0.75 0.734375 1.96875 0.953125l11.25 2.296875q1.609375 0.3125 2.640625 1.390625q1.046875 1.0625 1.046875 3.828125l0 3.09375q0 2.34375 -1.609375 3.875q-1.59375 1.515625 -4.3125 1.515625l-13.28125 0l0 -0.53125l13.28125 0q2.453125 0 3.921875 -1.359375q1.46875 -1.359375 1.46875 -3.5l0 -3.09375q0 -2.5 -0.890625 -3.4375q-0.875 -0.9375 -2.359375 -1.25l-11.265625 -2.296875q-1.375 -0.265625 -2.265625 -1.09375q-0.875 -0.828125 -0.875 -3.015625l0 -4.375q0 -2.125 1.484375 -3.484375q1.5 -1.359375 3.953125 -1.359375l11.84375 0zm70.06709 22.71875q0 5.75 -3.328125 8.578125q-3.328125 2.828125 -10.3125 2.828125l-17.984375 0q-1.28125 0 -1.875 -0.578125q-0.578125 -0.59375 -0.578125 -1.875l0 -34.546875q0 -1.28125 0.578125 -1.859375q0.59375 -0.59375 1.875 -0.59375l17.984375 0q6.984375 0 10.3125 2.828125q3.328125 2.8125 3.328125 8.578125l0 16.640625zm-13.640625 10.875q6.65625 0 9.875 -2.65625q3.234375 -2.671875 3.234375 -8.21875l0 -16.640625q0 -5.546875 -3.234375 -8.203125q-3.21875 -2.671875 -9.875 -2.671875l-17.984375 0q-1.0 0 -1.46875 0.453125q-0.453125 0.453125 -0.453125 1.46875l0 34.546875q0 1.015625 0.453125 1.46875q0.46875 0.453125 1.46875 0.453125l17.984375 0zm-14.078125 -4.796875l0 -28.796875l12.890625 0q2.734375 0 4.40625 0.59375q1.6875 0.578125 2.59375 1.5625q0.90625 0.984375 1.21875 2.34375q0.328125 1.359375 0.328125 2.90625l0 14.140625q0 1.546875 -0.296875 2.875q-0.296875 1.328125 -1.203125 2.296875q-0.90625 0.953125 -2.609375 1.515625q-1.703125 0.5625 -4.4375 0.5625l-12.890625 0zm12.890625 -28.265625l-12.359375 0l0 27.734375l12.359375 0q2.5625 0 4.140625 -0.5q1.578125 -0.515625 2.421875 -1.390625q0.859375 -0.890625 1.140625 -2.140625q0.296875 -1.25 0.296875 -2.6875l0 -14.140625q0 -1.4375 -0.328125 -2.71875q-0.3125 -1.28125 -1.171875 -2.1875q-0.84375 -0.90625 -2.421875 -1.4375q-1.5625 -0.53125 -4.078125 -0.53125zm-6.609375 4.859375l6.34375 0q1.28125 0 1.890625 0.609375q0.625 0.609375 0.625 1.9375l0 12.96875q0 1.328125 -0.625 1.96875q-0.609375 0.640625 -1.890625 0.640625l-6.34375 0l0 -18.125zm6.34375 0.53125l-5.8125 0l0 17.0625l5.8125 0q1.015625 0 1.5 -0.5q0.484375 -0.515625 0.484375 -1.578125l0 -12.96875q0 -1.0 -0.484375 -1.5q-0.484375 -0.515625 -1.5 -0.515625zm23.251472 28.203125q-1.28125 0 -1.875 -0.578125q-0.578125 -0.59375 -0.578125 -1.875l0 -34.546875q0 -1.28125 0.578125 -1.859375q0.59375 -0.59375 1.875 -0.59375l24.75 0q1.28125 0 1.859375 0.59375q0.59375 0.578125 0.59375 1.859375l0 6.234375q0 1.28125 -0.59375 1.875q-0.578125 0.578125 -1.859375 0.578125l-14.1875 0l0 3.03125l9.875 0q1.265625 0 1.859375 0.59375q0.59375 0.578125 0.59375 1.859375l0 5.71875q0 1.265625 -0.59375 1.859375q-0.59375 0.59375 -1.859375 0.59375l-9.875 0l0 3.515625l14.1875 0q1.28125 0 1.859375 0.59375q0.59375 0.578125 0.59375 1.859375l0 6.234375q0 1.28125 -0.59375 1.875q-0.578125 0.578125 -1.859375 0.578125l-24.75 0zm24.75 -0.53125q1.015625 0 1.46875 -0.453125q0.453125 -0.453125 0.453125 -1.46875l0 -6.234375q0 -1.015625 -0.453125 -1.46875q-0.453125 -0.453125 -1.46875 -0.453125l-14.71875 0l0 -4.59375l10.40625 0q1.0 0 1.453125 -0.453125q0.453125 -0.453125 0.453125 -1.453125l0 -5.71875q0 -1.0 -0.453125 -1.453125q-0.453125 -0.453125 -1.453125 -0.453125l-10.40625 0l0 -4.109375l14.71875 0q1.015625 0 1.46875 -0.453125q0.453125 -0.453125 0.453125 -1.46875l0 -6.234375q0 -1.015625 -0.453125 -1.46875q-0.453125 -0.453125 -1.46875 -0.453125l-24.75 0q-1.0 0 -1.46875 0.453125q-0.453125 0.453125 -0.453125 1.46875l0 34.546875q0 1.015625 0.453125 1.46875q0.46875 0.453125 1.46875 0.453125l24.75 0zm-2.875 -5.328125l0 0.53125l-17.96875 0l0 -28.796875l17.96875 0l0 0.53125l-17.4375 0l0 13.390625l13.109375 0l0 0.53125l-13.109375 0l0 13.8125l17.4375 0z" fill-rule="nonzero"/><path fill="#000000" fill-opacity="0.0" d="m67.6168 76.89895l0 44.7874" fill-rule="evenodd"/><path stroke="#000000" stroke-width="1.0" stroke-linejoin="round" stroke-linecap="butt" d="m67.6168 76.89895l0 44.7874" fill-rule="evenodd"/><path fill="#000000" fill-opacity="0.0" d="m67.6168 121.68635l9.228348 0" fill-rule="evenodd"/><path stroke="#000000" stroke-width="1.0" stroke-linejoin="round" stroke-linecap="butt" d="m67.6168 121.68635l9.228348 0" fill-rule="evenodd"/><path fill="#000000" fill-opacity="0.0" d="m76.845146 76.89895l0 44.7874" fill-rule="evenodd"/><path stroke="#000000" stroke-width="1.0" stroke-linejoin="round" stroke-linecap="butt" d="m76.845146 76.89895l0 44.7874" fill-rule="evenodd"/><path fill="#000000" fill-opacity="0.0" d="m76.845146 76.89895l8.314957 0" fill-rule="evenodd"/><path stroke="#000000" stroke-width="1.0" stroke-linejoin="round" stroke-linecap="butt" d="m76.845146 76.89895l8.314957 0" fill-rule="evenodd"/><path fill="#000000" fill-opacity="0.0" d="m85.1601 76.80315l0 -6.3936996" fill-rule="evenodd"/><path stroke="#000000" stroke-width="1.0" stroke-linejoin="round" stroke-linecap="butt" d="m85.1601 76.80315l0 -6.3936996" fill-rule="evenodd"/><path fill="#000000" fill-opacity="0.0" d="m85.580055 70.31365l-17.291344 0" fill-rule="evenodd"/><path stroke="#000000" stroke-width="1.0" stroke-linejoin="round" stroke-linecap="butt" d="m85.580055 70.31365l-17.291344 0" fill-rule="evenodd"/><path fill="#000000" fill-opacity="0.0" d="m68.89764 70.36483c0 0.21260834 -1.6535416 -0.4566803 -3.3070831 0.42520905c-1.6535454 0.88188934 -3.307087 3.3149567 -3.307087 6.6299057" fill-rule="evenodd"/><path stroke="#000000" stroke-width="1.0" stroke-linejoin="round" stroke-linecap="butt" d="m68.89764 70.36483c0 0.21260834 -1.6535416 -0.4566803 -3.3070831 0.42520905c-1.6535454 0.88188934 -3.307087 3.3149567 -3.307087 6.6299057" fill-rule="evenodd"/><path fill="#000000" fill-opacity="0.0" d="m62.70866 76.89895l5.7637825 0" fill-rule="evenodd"/><path stroke="#000000" stroke-width="1.0" stroke-linejoin="round" stroke-linecap="butt" d="m62.70866 76.89895l5.7637825 0" fill-rule="evenodd"/><path fill="#000000" fill-opacity="0.0" d="m68.92388 115.862206l0 0c0 -1.8264542 1.4806366 -3.3070908 3.3070908 -3.3070908l0 0c0.87709045 0 1.7182617 0.34842682 2.3384628 0.9686279c0.6202011 0.6202011 0.9686203 1.4613647 0.9686203 2.3384628l0 0c0 1.8264542 -1.480629 3.3070831 -3.3070831 3.3070831l0 0c-1.8264542 0 -3.3070908 -1.480629 -3.3070908 -3.3070831z" fill-rule="evenodd"/><path stroke="#000000" stroke-width="1.0" stroke-linejoin="round" stroke-linecap="butt" d="m68.92388 115.862206l0 0c0 -1.8264542 1.4806366 -3.3070908 3.3070908 -3.3070908l0 0c0.87709045 0 1.7182617 0.34842682 2.3384628 0.9686279c0.6202011 0.6202011 0.9686203 1.4613647 0.9686203 2.3384628l0 0c0 1.8264542 -1.480629 3.3070831 -3.3070831 3.3070831l0 0c-1.8264542 0 -3.3070908 -1.480629 -3.3070908 -3.3070831z" fill-rule="evenodd"/><path fill="#000000" fill-opacity="0.0" d="m72.18372 76.80446l0.09449005 35.2126" fill-rule="evenodd"/><path stroke="#000000" stroke-width="1.0" stroke-linejoin="round" stroke-linecap="butt" d="m72.18372 76.80446l0.09449005 35.2126" fill-rule="evenodd"/></g></svg>