<svg version="1.1" viewBox="0.0 0.0 192.0 192.0" fill="none" stroke="none" stroke-linecap="square" stroke-miterlimit="10" xmlns:xlink="http://www.w3.org/1999/xlink" xmlns="http://www.w3.org/2000/svg"><clipPath id="p.0"><path d="m0 0l192.0 0l0 192.0l-192.0 0l0 -192.0z" clip-rule="nonzero"/></clipPath><g clip-path="url(#p.0)"><path fill="#000000" fill-opacity="0.0" d="m0 0l192.0 0l0 192.0l-192.0 0z" fill-rule="evenodd"/><path fill="#000000" fill-opacity="0.0" d="m37.937008 66.968506l87.09448 0l0 87.09448l-87.09448 0z" fill-rule="evenodd"/><path fill="#000000" fill-opacity="0.0" d="m125.031494 66.968506l29.031494 -29.031498l0 87.09448l-29.031494 29.031494z" fill-rule="evenodd"/><path fill="#000000" fill-opacity="0.0" d="m37.937008 66.968506l29.031498 -29.031498l87.09448 0l-29.031494 29.031498z" fill-rule="evenodd"/><path fill="#000000" fill-opacity="0.0" d="m37.937008 66.968506l29.031498 -29.031498l87.09448 0l0 87.09448l-29.031494 29.031494l-87.09448 0zm0 0l87.09448 0l29.031494 -29.031498m-29.031494 29.031498l0 87.09448" fill-rule="evenodd"/><path fill="#000000" fill-opacity="0.2" d="m125.031494 66.968506l29.031494 -29.031498l0 87.09448l-29.031494 29.031494z" fill-rule="evenodd"/><path fill="#ffffff" fill-opacity="0.2" d="m37.937008 66.968506l29.031498 -29.031498l87.09448 0l-29.031494 29.031498z" fill-rule="evenodd"/><path stroke="#000000" stroke-width="1.0" stroke-linejoin="round" stroke-linecap="butt" d="m37.937008 66.968506l29.031498 -29.031498l87.09448 0l0 87.09448l-29.031494 29.031494l-87.09448 0zm0 0l87.09448 0l29.031494 -29.031498m-29.031494 29.031498l0 87.09448" fill-rule="evenodd"/></g></svg>